<mxGraphModel dx="1428" dy="793" grid="1" gridSize="10" guides="1" tooltips="1" connect="1" arrows="1" fold="1" page="1" pageScale="1" pageWidth="827" pageHeight="1169" math="0" shadow="0">
  <root>
    <mxCell id="WIyWlLk6GJQsqaUBKTNV-0" />
    <mxCell id="WIyWlLk6GJQsqaUBKTNV-1" parent="WIyWlLk6GJQsqaUBKTNV-0" />
    <mxCell id="zkfFHV4jXpPFQw0GAbJ--0" value="app.component" style="swimlane;fontStyle=2;align=center;verticalAlign=top;childLayout=stackLayout;horizontal=1;startSize=26;horizontalStack=0;resizeParent=1;resizeLast=0;collapsible=1;marginBottom=0;rounded=0;shadow=0;strokeWidth=1;" parent="WIyWlLk6GJQsqaUBKTNV-1" vertex="1">
      <mxGeometry x="220" y="120" width="160" height="138" as="geometry">
        <mxRectangle x="230" y="140" width="160" height="26" as="alternateBounds" />
      </mxGeometry>
    </mxCell>
    <mxCell id="zkfFHV4jXpPFQw0GAbJ--1" value="User ID" style="text;align=left;verticalAlign=top;spacingLeft=4;spacingRight=4;overflow=hidden;rotatable=0;points=[[0,0.5],[1,0.5]];portConstraint=eastwest;" parent="zkfFHV4jXpPFQw0GAbJ--0" vertex="1">
      <mxGeometry y="26" width="160" height="26" as="geometry" />
    </mxCell>
    <mxCell id="zkfFHV4jXpPFQw0GAbJ--2" value="Session ID" style="text;align=left;verticalAlign=top;spacingLeft=4;spacingRight=4;overflow=hidden;rotatable=0;points=[[0,0.5],[1,0.5]];portConstraint=eastwest;rounded=0;shadow=0;html=0;" parent="zkfFHV4jXpPFQw0GAbJ--0" vertex="1">
      <mxGeometry y="52" width="160" height="26" as="geometry" />
    </mxCell>
    <mxCell id="zkfFHV4jXpPFQw0GAbJ--4" value="" style="line;html=1;strokeWidth=1;align=left;verticalAlign=middle;spacingTop=-1;spacingLeft=3;spacingRight=3;rotatable=0;labelPosition=right;points=[];portConstraint=eastwest;" parent="zkfFHV4jXpPFQw0GAbJ--0" vertex="1">
      <mxGeometry y="78" width="160" height="8" as="geometry" />
    </mxCell>
    <mxCell id="zkfFHV4jXpPFQw0GAbJ--6" value="contact-list.component" style="swimlane;fontStyle=0;align=center;verticalAlign=top;childLayout=stackLayout;horizontal=1;startSize=26;horizontalStack=0;resizeParent=1;resizeLast=0;collapsible=1;marginBottom=0;rounded=0;shadow=0;strokeWidth=1;" parent="WIyWlLk6GJQsqaUBKTNV-1" vertex="1">
      <mxGeometry x="120" y="360" width="160" height="138" as="geometry">
        <mxRectangle x="130" y="380" width="160" height="26" as="alternateBounds" />
      </mxGeometry>
    </mxCell>
    <mxCell id="zkfFHV4jXpPFQw0GAbJ--7" value="List of all contacts" style="text;align=left;verticalAlign=top;spacingLeft=4;spacingRight=4;overflow=hidden;rotatable=0;points=[[0,0.5],[1,0.5]];portConstraint=eastwest;" parent="zkfFHV4jXpPFQw0GAbJ--6" vertex="1">
      <mxGeometry y="26" width="160" height="26" as="geometry" />
    </mxCell>
    <mxCell id="zkfFHV4jXpPFQw0GAbJ--9" value="" style="line;html=1;strokeWidth=1;align=left;verticalAlign=middle;spacingTop=-1;spacingLeft=3;spacingRight=3;rotatable=0;labelPosition=right;points=[];portConstraint=eastwest;" parent="zkfFHV4jXpPFQw0GAbJ--6" vertex="1">
      <mxGeometry y="52" width="160" height="8" as="geometry" />
    </mxCell>
    <mxCell id="eQXCQ6cBb-6cVCzky_Hh-16" value="Opens chat component on&lt;br/&gt;&lt;br&gt;click on respective cantact" style="text;whiteSpace=wrap;html=1;" parent="zkfFHV4jXpPFQw0GAbJ--6" vertex="1">
      <mxGeometry y="60" width="160" height="50" as="geometry" />
    </mxCell>
    <mxCell id="zkfFHV4jXpPFQw0GAbJ--13" value="chat.component" style="swimlane;fontStyle=0;align=center;verticalAlign=top;childLayout=stackLayout;horizontal=1;startSize=26;horizontalStack=0;resizeParent=1;resizeLast=0;collapsible=1;marginBottom=0;rounded=0;shadow=0;strokeWidth=1;" parent="WIyWlLk6GJQsqaUBKTNV-1" vertex="1">
      <mxGeometry x="330" y="360" width="160" height="98" as="geometry">
        <mxRectangle x="340" y="380" width="170" height="26" as="alternateBounds" />
      </mxGeometry>
    </mxCell>
    <mxCell id="zkfFHV4jXpPFQw0GAbJ--14" value="Previous chat history&#xa;Media&#xa;Links" style="text;align=left;verticalAlign=top;spacingLeft=4;spacingRight=4;overflow=hidden;rotatable=0;points=[[0,0.5],[1,0.5]];portConstraint=eastwest;" parent="zkfFHV4jXpPFQw0GAbJ--13" vertex="1">
      <mxGeometry y="26" width="160" height="54" as="geometry" />
    </mxCell>
    <mxCell id="zkfFHV4jXpPFQw0GAbJ--15" value="" style="line;html=1;strokeWidth=1;align=left;verticalAlign=middle;spacingTop=-1;spacingLeft=3;spacingRight=3;rotatable=0;labelPosition=right;points=[];portConstraint=eastwest;" parent="zkfFHV4jXpPFQw0GAbJ--13" vertex="1">
      <mxGeometry y="80" width="160" height="8" as="geometry" />
    </mxCell>
    <mxCell id="eQXCQ6cBb-6cVCzky_Hh-0" value="" style="endArrow=diamondThin;endFill=0;endSize=24;html=1;rounded=0;exitX=0.5;exitY=0;exitDx=0;exitDy=0;" parent="WIyWlLk6GJQsqaUBKTNV-1" source="zkfFHV4jXpPFQw0GAbJ--6" edge="1">
      <mxGeometry width="160" relative="1" as="geometry">
        <mxPoint x="310" y="430" as="sourcePoint" />
        <mxPoint x="300" y="260" as="targetPoint" />
        <Array as="points">
          <mxPoint x="200" y="320" />
          <mxPoint x="300" y="320" />
        </Array>
      </mxGeometry>
    </mxCell>
    <mxCell id="eQXCQ6cBb-6cVCzky_Hh-1" value="contact.component" style="swimlane;fontStyle=0;align=center;verticalAlign=top;childLayout=stackLayout;horizontal=1;startSize=26;horizontalStack=0;resizeParent=1;resizeLast=0;collapsible=1;marginBottom=0;rounded=0;shadow=0;strokeWidth=1;" parent="WIyWlLk6GJQsqaUBKTNV-1" vertex="1">
      <mxGeometry x="120" y="550" width="160" height="90" as="geometry">
        <mxRectangle x="340" y="380" width="170" height="26" as="alternateBounds" />
      </mxGeometry>
    </mxCell>
    <mxCell id="eQXCQ6cBb-6cVCzky_Hh-2" value="Reference to corresponding&#xa;contact&#xa;" style="text;align=left;verticalAlign=top;spacingLeft=4;spacingRight=4;overflow=hidden;rotatable=0;points=[[0,0.5],[1,0.5]];portConstraint=eastwest;" parent="eQXCQ6cBb-6cVCzky_Hh-1" vertex="1">
      <mxGeometry y="26" width="160" height="44" as="geometry" />
    </mxCell>
    <mxCell id="eQXCQ6cBb-6cVCzky_Hh-3" value="" style="line;html=1;strokeWidth=1;align=left;verticalAlign=middle;spacingTop=-1;spacingLeft=3;spacingRight=3;rotatable=0;labelPosition=right;points=[];portConstraint=eastwest;" parent="eQXCQ6cBb-6cVCzky_Hh-1" vertex="1">
      <mxGeometry y="70" width="160" height="10" as="geometry" />
    </mxCell>
    <mxCell id="eQXCQ6cBb-6cVCzky_Hh-4" value="" style="endArrow=diamondThin;endFill=0;endSize=24;html=1;rounded=0;exitX=0.5;exitY=0;exitDx=0;exitDy=0;" parent="WIyWlLk6GJQsqaUBKTNV-1" source="eQXCQ6cBb-6cVCzky_Hh-1" edge="1">
      <mxGeometry width="160" relative="1" as="geometry">
        <mxPoint x="310" y="430" as="sourcePoint" />
        <mxPoint x="200" y="500" as="targetPoint" />
        <Array as="points" />
      </mxGeometry>
    </mxCell>
    <mxCell id="eQXCQ6cBb-6cVCzky_Hh-10" value="" style="endArrow=block;startArrow=block;endFill=1;startFill=1;html=1;rounded=0;exitX=1;exitY=0.5;exitDx=0;exitDy=0;entryX=0.25;entryY=1;entryDx=0;entryDy=0;" parent="WIyWlLk6GJQsqaUBKTNV-1" source="eQXCQ6cBb-6cVCzky_Hh-2" target="zkfFHV4jXpPFQw0GAbJ--13" edge="1">
      <mxGeometry width="160" relative="1" as="geometry">
        <mxPoint x="310" y="430" as="sourcePoint" />
        <mxPoint x="470" y="430" as="targetPoint" />
        <Array as="points">
          <mxPoint x="370" y="598" />
        </Array>
      </mxGeometry>
    </mxCell>
    <mxCell id="eQXCQ6cBb-6cVCzky_Hh-12" value="1" style="edgeLabel;html=1;align=center;verticalAlign=middle;resizable=0;points=[];" parent="eQXCQ6cBb-6cVCzky_Hh-10" vertex="1" connectable="0">
      <mxGeometry x="0.9031" y="-5" relative="1" as="geometry">
        <mxPoint as="offset" />
      </mxGeometry>
    </mxCell>
    <mxCell id="eQXCQ6cBb-6cVCzky_Hh-13" value="1" style="edgeLabel;html=1;align=center;verticalAlign=middle;resizable=0;points=[];" parent="eQXCQ6cBb-6cVCzky_Hh-10" vertex="1" connectable="0">
      <mxGeometry x="-0.8824" y="-2" relative="1" as="geometry">
        <mxPoint as="offset" />
      </mxGeometry>
    </mxCell>
    <mxCell id="eQXCQ6cBb-6cVCzky_Hh-14" value="" style="endArrow=diamondThin;endFill=0;endSize=24;html=1;rounded=0;exitX=0.5;exitY=0;exitDx=0;exitDy=0;" parent="WIyWlLk6GJQsqaUBKTNV-1" source="zkfFHV4jXpPFQw0GAbJ--13" edge="1">
      <mxGeometry width="160" relative="1" as="geometry">
        <mxPoint x="210" y="370" as="sourcePoint" />
        <mxPoint x="300" y="260" as="targetPoint" />
        <Array as="points">
          <mxPoint x="410" y="320" />
          <mxPoint x="300" y="320" />
        </Array>
      </mxGeometry>
    </mxCell>
    <mxCell id="eQXCQ6cBb-6cVCzky_Hh-15" value="" style="endArrow=diamondThin;endFill=0;endSize=24;html=1;rounded=0;entryX=0.75;entryY=1;entryDx=0;entryDy=0;exitX=0;exitY=0;exitDx=0;exitDy=0;" parent="WIyWlLk6GJQsqaUBKTNV-1" source="eQXCQ6cBb-6cVCzky_Hh-26" target="zkfFHV4jXpPFQw0GAbJ--13" edge="1">
      <mxGeometry width="160" relative="1" as="geometry">
        <mxPoint x="570" y="440" as="sourcePoint" />
        <mxPoint x="470" y="430" as="targetPoint" />
        <Array as="points">
          <mxPoint x="450" y="594" />
        </Array>
      </mxGeometry>
    </mxCell>
    <mxCell id="eQXCQ6cBb-6cVCzky_Hh-20" value="chat-text.component" style="swimlane;fontStyle=0;align=center;verticalAlign=top;childLayout=stackLayout;horizontal=1;startSize=26;horizontalStack=0;resizeParent=1;resizeLast=0;collapsible=1;marginBottom=0;rounded=0;shadow=0;strokeWidth=1;" parent="WIyWlLk6GJQsqaUBKTNV-1" vertex="1">
      <mxGeometry x="490" y="516" width="160" height="128" as="geometry">
        <mxRectangle x="130" y="380" width="160" height="26" as="alternateBounds" />
      </mxGeometry>
    </mxCell>
    <mxCell id="eQXCQ6cBb-6cVCzky_Hh-21" value="Has next&#xa;Is sent&#xa;" style="text;align=left;verticalAlign=top;spacingLeft=4;spacingRight=4;overflow=hidden;rotatable=0;points=[[0,0.5],[1,0.5]];portConstraint=eastwest;" parent="eQXCQ6cBb-6cVCzky_Hh-20" vertex="1">
      <mxGeometry y="26" width="160" height="44" as="geometry" />
    </mxCell>
    <mxCell id="eQXCQ6cBb-6cVCzky_Hh-22" value="" style="line;html=1;strokeWidth=1;align=left;verticalAlign=middle;spacingTop=-1;spacingLeft=3;spacingRight=3;rotatable=0;labelPosition=right;points=[];portConstraint=eastwest;" parent="eQXCQ6cBb-6cVCzky_Hh-20" vertex="1">
      <mxGeometry y="70" width="160" height="8" as="geometry" />
    </mxCell>
    <mxCell id="eQXCQ6cBb-6cVCzky_Hh-26" value="Editable if unsent" style="text;whiteSpace=wrap;html=1;" parent="eQXCQ6cBb-6cVCzky_Hh-20" vertex="1">
      <mxGeometry y="78" width="160" height="50" as="geometry" />
    </mxCell>
  </root>
</mxGraphModel>

